<svg class="" width="24" height="18" viewBox="0 0 24 25" fill="none" xmlns="http://www.w3.org/2000/svg">
  <path d="M7.22384 16.8422H15.4427C20.5207 16.8422 21.293 13.6521 22.2296 8.99939C22.4999 7.65738 22.635 6.98638 22.3101 6.53934C21.9852 6.09229 21.3625 6.09229 20.1171 6.09229H4.96069" stroke="currentColor" stroke-width="1.5" stroke-linecap="round"></path>
  <path d="M7.22365 16.842L4.25749 2.71425C4.00563 1.70677 3.1004 1 2.06192 1H1" stroke="currentColor" stroke-width="1.5" stroke-linecap="round"></path>
  <path d="M8.21962 16.8423H7.75406C6.21133 16.8423 4.96069 18.1451 4.96069 19.752C4.96069 20.0199 5.16913 20.237 5.42626 20.237H17.9738" stroke="currentColor" stroke-width="1.5" stroke-linecap="round" stroke-linejoin="round"></path>
  <path d="M10.0525 23.6318C10.9899 23.6318 11.7499 22.8718 11.7499 21.9344C11.7499 20.997 10.9899 20.2371 10.0525 20.2371C9.1151 20.2371 8.35516 20.997 8.35516 21.9344C8.35516 22.8718 9.1151 23.6318 10.0525 23.6318Z" stroke="currentColor" stroke-width="1.5"></path>
  <path d="M17.9733 23.6318C18.9107 23.6318 19.6707 22.8718 19.6707 21.9344C19.6707 20.997 18.9107 20.2371 17.9733 20.2371C17.0359 20.2371 16.2759 20.997 16.2759 21.9344C16.2759 22.8718 17.0359 23.6318 17.9733 23.6318Z" stroke="currentColor" stroke-width="1.5"></path>
</svg>